# xmcd CD database file
#
# Track frame offsets:
#	182
#	12552
#	26797
#	38507
#	49425
#	62020
#	73757
#	86057
#	98220
#	111325
#	123342
#	135982
#	148127
#	161630
#	174540
#	186312
#	197850
#	208875
#	221125
#	232555
#	245742
#	257830
#	270827
#	281727
#
# Disc length: 3902 seconds
#
# Revision: 0
# Processed by: cddbd v1.5.1PL0 Copyright (c) Steve Scherf et al.
# Submitted via: CDex 1.51
#
DISCID=720f3c18
DTITLE=Mena Moeria Minstrels - Hawaiian Sunrise
DYEAR=1900
DGENRE=Hawaiian
TTITLE0=Hilo March
TTITLE1=Hawaiian Sunrise
TTITLE2=Beautiful Aloha Beach
TTITLE3=Magic Moon
TTITLE4=South Sea Breeze
TTITLE5=Allegheny Moon
TTITLE6=Honolulu Rock-A-Roll
TTITLE7=Hula Girl
TTITLE8=Ticklin' The Strings
TTITLE9=Fascinating Rhythm
TTITLE10=Silver Moon And Golden Sands
TTITLE11=Blue Bahamas
TTITLE12=Maka Lapua
TTITLE13=Na Aloe
TTITLE14=Hano Hano Hanalei
TTITLE15=Kaulana-o-hilo-hanakahi
TTITLE16=Hula-e-pae
TTITLE17=The Beauty Hula
TTITLE18=Tomi Tomi
TTITLE19=Pua Ika Lani
TTITLE20=Kane-oe-hula
TTITLE21=Uhe-uhene
TTITLE22=Ula-hua-wale-au
TTITLE23=He u'i
EXTD=
EXTT0=
EXTT1=
EXTT2=
EXTT3=
EXTT4=
EXTT5=
EXTT6=
EXTT7=
EXTT8=
EXTT9=
EXTT10=
EXTT11=
EXTT12=
EXTT13=
EXTT14=
EXTT15=
EXTT16=
EXTT17=
EXTT18=
EXTT19=
EXTT20=
EXTT21=
EXTT22=
EXTT23=
PLAYORDER=
